:SAMPLES-PER-SECOND 30
:FULLY-SPECIFIED
:DEGREES
351
root  -9.44106 38.8081 34.5322 172.065 80.8749 174.84
RightUpLeg  -20.7879 -7.65377 -5.91432
RightLeg  -3.69349 -9.38885 5.78074
RightFoot  3.2298 -0.899845 7.20496
RightToes  -5.8209e-011 0 -3.6325e-017
Spine  7.42572 -2.74076 -4.85716
Spine1  4.53974 -3.86644 3.73413
HEad  36.4948 -27.9696 -83.996
LeftShoulder1  8.86821 -12.8623 -47.2878
LeftArm  0.623951 -15.727 -27.7404
LeftForeArm  35.0811 -41.92 -7.73985
LeftHand  -0.244104 0.0205437 5.32207
RightShoulder  5.84017 9.18595 39.8905
RightArm  -3.74576 -13.96 31.6326
RightForeArm  18.7111 9.71588 6.7334
RightHand  -0.126928 -3.30681 -6.30757
LeftUpLeg  18.0107 6.3197 -3.06654
LeftLeg  10.9356 0.784852 -4.70209
LeftFoot  -20.6692 0.537133 5.04725
LeftToes  1.76439e-010 -1.07097e-011 2.32476e-011
352
root  -7.63425 38.5825 34.5564 174.359 80.1546 177.144
RightUpLeg  -21.7565 -7.9274 -4.4065
RightLeg  2.55213 -12.0706 4.3584
RightFoot  4.97014 -0.605587 4.51211
RightToes  -5.8209e-011 0 -3.6325e-017
Spine  6.62912 -2.86651 -3.9614
Spine1  5.40308 -4.18774 4.23327
HEad  26.6909 -9.91981 -54.4674
LeftShoulder1  8.83171 -12.8236 -47.2031
LeftArm  -0.46959 -15.6771 -27.0789
LeftForeArm  35.2052 -42.9019 -8.04238
LeftHand  -0.244104 0.0205437 5.32207
RightShoulder  5.88169 9.21745 40.0919
RightArm  -4.03157 -13.6392 31.2901
RightForeArm  17.2813 9.82069 6.73824
RightHand  -0.138321 -3.31114 -6.95947
LeftUpLeg  20.3637 7.90506 -1.16621
LeftLeg  12.2487 -2.07416 -4.09439
LeftFoot  -20.2174 0.388098 3.46417
LeftToes  1.76439e-010 -1.07097e-011 2.32476e-011
353
root  -5.65969 38.4125 34.4954 -179.066 79.4372 -176.231
RightUpLeg  -22.9732 -11.7233 -0.720156
RightLeg  9.86112 -8.39565 1.89208
RightFoot  7.93149 -0.0756537 0.783478
RightToes  -5.8209e-011 0 -3.6325e-017
Spine  5.10089 -3.16332 -0.94664
Spine1  6.33559 -4.28827 3.57037
HEad  5.69094 42.9559 95.5837
LeftShoulder1  8.90436 -12.7834 -47.7174
LeftArm  -1.16554 -14.2077 -26.2684
LeftForeArm  34.7186 -42.6359 -7.99013
LeftHand  -0.244104 0.0205437 5.32207
RightShoulder  5.89762 9.19717 40.2806
RightArm  -4.16502 -13.7213 30.9595
RightForeArm  17.1044 9.67177 6.74196
RightHand  -0.189821 -2.68918 -7.6993
LeftUpLeg  22.4608 9.80434 1.85499
LeftLeg  14.3063 -5.29407 -3.17955
LeftFoot  -19.1202 0.127459 0.13703
LeftToes  1.76439e-010 -1.07097e-011 2.32476e-011
354
root  -3.6674 38.4002 34.3824 -168.678 79.1533 -165.711
RightUpLeg  -23.9924 -15.4639 3.74587
RightLeg  15.7922 -2.83609 0.179837
RightFoot  8.94833 0.567662 -2.88356
RightToes  -5.8209e-011 0 -3.6325e-017
Spine  3.8965 -3.08286 3.85183
Spine1  6.76536 -3.80573 2.34964
HEad  6.76772 38.0743 79.3627
LeftShoulder1  8.98317 -12.6509 -48.5435
LeftArm  -1.5828 -11.4086 -25.974
LeftForeArm  33.9652 -40.8878 -7.49715
LeftHand  -0.244104 0.0205437 5.32207
RightShoulder  5.91788 9.16637 40.5378
RightArm  -4.26645 -14.0175 30.4814
RightForeArm  17.7139 9.0311 6.77469
RightHand  -0.278932 -1.64112 -8.47359
LeftUpLeg  23.2799 11.0156 5.3414
LeftLeg  17.9757 -7.00796 -2.4129
LeftFoot  -15.2882 -0.0521526 -4.6671
LeftToes  1.76439e-010 -1.07097e-011 2.32476e-011
355
root  -1.7702 38.458 34.3136 -160.126 78.8951 -157.142
RightUpLeg  -24.1594 -15.731 6.15841
RightLeg  20.9586 -1.39401 -0.927398
RightFoot  6.11602 0.767208 -4.69632
RightToes  -5.8209e-011 0 -3.6325e-017
Spine  3.47051 -2.63585 7.72415
Spine1  6.6374 -2.95666 1.56913
HEad  5.32244 38.5771 79.2072
LeftShoulder1  8.93668 -12.4026 -49.0459
LeftArm  -2.22945 -7.92481 -26.694
LeftForeArm  32.8154 -37.8439 -6.68654
LeftHand  -0.244104 0.0205437 5.32207
RightShoulder  6.03363 9.28591 40.9784
RightArm  -4.23845 -13.992 29.9115
RightForeArm  18.0273 8.24184 6.83762
RightHand  -0.344632 -0.974053 -9.0076
LeftUpLeg  20.423 9.29514 6.99554
LeftLeg  26.216 -4.71748 -2.12117
LeftFoot  -6.66555 0.352335 -7.90651
LeftToes  1.76439e-010 -1.07097e-011 2.32476e-011
356
root  -0.0983215 38.5273 34.31 -156.801 77.5665 -154.091
RightUpLeg  -22.9937 -15.0667 6.77955
RightLeg  24.102 -3.05338 -1.72602
RightFoot  1.76364 0.516716 -4.35912
RightToes  -5.8209e-011 0 -3.6325e-017
Spine  3.45427 -2.37735 9.94072
Spine1  6.70112 -2.36197 1.56186
HEad  8.54247 25.7629 40.7017
LeftShoulder1  8.865 -12.2395 -49.1558
LeftArm  -2.66624 -4.80043 -27.972
LeftForeArm  30.4217 -33.7021 -5.73738
LeftHand  -0.244104 0.0205437 5.32207
RightShoulder  6.19967 9.50839 41.4205
RightArm  -4.31946 -13.4183 29.704
RightForeArm  17.8714 7.85036 6.84757
RightHand  -0.35378 -0.942823 -9.18183
LeftUpLeg  13.7625 6.37188 7.59952
LeftLeg  37.9919 -1.98895 -1.2902
LeftFoot  5.20832 1.08699 -7.80627
LeftToes  1.76439e-010 -1.07097e-011 2.32476e-011
